<svg width="20" height="20" viewBox="0 0 20 20" fill="none" xmlns="http://www.w3.org/2000/svg">
<g clip-path="url(#clip0_328_13)">
<path d="M5.07157 19.9292C4.29798 19.9206 3.53167 19.7787 2.80627 19.5098C2.27656 19.314 1.7973 19.0023 1.40353 18.5975C0.997602 18.2045 0.685428 17.7251 0.490196 17.1949C0.22152 16.4695 0.0798397 15.7033 0.0713725 14.9298C0.0119608 13.6439 0 13.2582 0 10C0 6.74176 0.0131373 6.35745 0.0707843 5.07059C0.0802789 4.29741 0.222134 3.53156 0.490196 2.80627C0.686378 2.27647 0.99811 1.79702 1.40275 1.40275C1.79603 0.997182 2.27551 0.685298 2.80569 0.490196C3.53108 0.221297 4.2974 0.0794173 5.07098 0.0707843C6.35725 0.0119608 6.74353 0 10 0C13.2565 0 13.6425 0.0131373 14.9294 0.0707843C15.7028 0.0802119 16.4688 0.222068 17.1943 0.490196C17.7243 0.685556 18.2036 0.997331 18.5971 1.40255C19.0024 1.79613 19.3143 2.27561 19.5098 2.80569C19.7788 3.53107 19.9207 4.29738 19.9294 5.07098C19.9882 6.35784 20.0002 6.74314 20.0002 10.0004C20.0002 13.2576 19.9882 13.6429 19.9294 14.9298C19.9201 15.7033 19.7781 16.4694 19.5098 17.1949C19.3068 17.721 18.9959 18.1988 18.5971 18.5975C18.1983 18.9962 17.7205 19.307 17.1943 19.5098C16.4689 19.7788 15.7026 19.9207 14.929 19.9294C13.6433 19.9882 13.2569 20.0002 9.99961 20.0002C6.74235 20.0002 6.35706 19.9888 5.07137 19.9294" fill="url(#paint0_radial_328_13)"/>
<path d="M5.07157 19.9292C4.29798 19.9206 3.53167 19.7787 2.80627 19.5098C2.27656 19.314 1.7973 19.0023 1.40353 18.5975C0.997602 18.2045 0.685428 17.7251 0.490196 17.1949C0.22152 16.4695 0.0798397 15.7033 0.0713725 14.9298C0.0119608 13.6439 0 13.2582 0 10C0 6.74176 0.0131373 6.35745 0.0707843 5.07059C0.0802789 4.29741 0.222134 3.53156 0.490196 2.80627C0.686378 2.27647 0.99811 1.79702 1.40275 1.40275C1.79603 0.997182 2.27551 0.685298 2.80569 0.490196C3.53108 0.221297 4.2974 0.0794173 5.07098 0.0707843C6.35725 0.0119608 6.74353 0 10 0C13.2565 0 13.6425 0.0131373 14.9294 0.0707843C15.7028 0.0802119 16.4688 0.222068 17.1943 0.490196C17.7243 0.685556 18.2036 0.997331 18.5971 1.40255C19.0024 1.79613 19.3143 2.27561 19.5098 2.80569C19.7788 3.53107 19.9207 4.29738 19.9294 5.07098C19.9882 6.35784 20.0002 6.74314 20.0002 10.0004C20.0002 13.2576 19.9882 13.6429 19.9294 14.9298C19.9201 15.7033 19.7781 16.4694 19.5098 17.1949C19.3068 17.721 18.9959 18.1988 18.5971 18.5975C18.1983 18.9962 17.7205 19.307 17.1943 19.5098C16.4689 19.7788 15.7026 19.9207 14.929 19.9294C13.6433 19.9882 13.2569 20.0002 9.99961 20.0002C6.74235 20.0002 6.35706 19.9888 5.07137 19.9294" fill="url(#paint1_radial_328_13)"/>
<path d="M7.54455 10.0425C7.54459 9.55267 7.68988 9.07384 7.96206 8.66657C8.23424 8.25931 8.62108 7.94189 9.07366 7.75448C9.52624 7.56707 10.0242 7.51808 10.5047 7.61369C10.9851 7.70931 11.4264 7.94524 11.7727 8.29166C12.119 8.63807 12.3548 9.07941 12.4503 9.55986C12.5459 10.0403 12.4967 10.5383 12.3092 10.9908C12.1217 11.4433 11.8042 11.8301 11.3969 12.1022C10.9895 12.3743 10.5107 12.5195 10.0208 12.5194C9.364 12.5193 8.73412 12.2583 8.26973 11.7938C7.80535 11.3293 7.5445 10.6993 7.54455 10.0425ZM6.20553 10.0425C6.20553 10.7971 6.42929 11.5348 6.84852 12.1622C7.26775 12.7896 7.86362 13.2786 8.56077 13.5674C9.25792 13.8562 10.0251 13.9317 10.7651 13.7845C11.5052 13.6373 12.1851 13.2739 12.7186 12.7403C13.2522 12.2068 13.6156 11.5269 13.7628 10.7869C13.91 10.0468 13.8345 9.27962 13.5457 8.58247C13.2569 7.88532 12.7679 7.28945 12.1405 6.87022C11.5131 6.45099 10.7754 6.22723 10.0208 6.22723C9.51978 6.2272 9.02365 6.32587 8.56074 6.5176C8.09784 6.70932 7.67723 6.99035 7.32294 7.34464C6.96865 7.69893 6.68762 8.11954 6.4959 8.58244C6.30417 9.04535 6.2055 9.54148 6.20553 10.0425ZM13.0955 6.07605C13.0954 6.25239 13.1477 6.42479 13.2456 6.57145C13.3435 6.71811 13.4827 6.83244 13.6455 6.89999C13.8084 6.96755 13.9877 6.98528 14.1606 6.95096C14.3336 6.91663 14.4925 6.83179 14.6173 6.70715C14.742 6.58252 14.827 6.4237 14.8615 6.25077C14.8959 6.07783 14.8784 5.89856 14.8109 5.73562C14.7435 5.57267 14.6293 5.43338 14.4827 5.33535C14.3362 5.23732 14.1638 5.18495 13.9875 5.18488C13.7511 5.18498 13.5245 5.27889 13.3573 5.44599C13.1901 5.61308 13.0961 5.83969 13.0959 6.07605M7.01945 16.0906C6.5483 16.0854 6.08154 15.9992 5.63964 15.8357C5.31917 15.7121 5.02811 15.5229 4.7852 15.2801C4.54229 15.0373 4.35291 14.7463 4.22925 14.4259C4.06568 13.984 3.97945 13.5172 3.97435 13.046C3.93827 12.2629 3.93121 12.0276 3.93121 10.0435C3.93121 8.05938 3.93906 7.82468 3.97435 7.04076C3.98007 6.56966 4.06627 6.103 4.22925 5.66095C4.35276 5.34038 4.54209 5.04924 4.78501 4.80632C5.02793 4.5634 5.31907 4.37407 5.63964 4.25056C6.08153 4.08699 6.54829 4.00076 7.01945 3.99566C7.80258 3.95958 8.03788 3.95252 10.0212 3.95252C12.0045 3.95252 12.24 3.96017 13.024 3.99586C13.4951 4.00157 13.9617 4.08778 14.4038 4.25076C14.7243 4.37428 15.0155 4.56361 15.2584 4.80653C15.5013 5.04945 15.6906 5.34058 15.8142 5.66115C15.9777 6.10304 16.0639 6.5698 16.0691 7.04096C16.1051 7.82527 16.1122 8.05939 16.1122 10.0437C16.1122 12.028 16.1049 12.2625 16.0691 13.0464C16.0636 13.5176 15.9774 13.9843 15.8142 14.4262C15.6905 14.7467 15.5011 15.0377 15.2582 15.2805C15.0153 15.5233 14.7242 15.7125 14.4038 15.8361C13.9619 15.9996 13.4951 16.0858 13.024 16.091C12.2408 16.127 12.0055 16.1341 10.0212 16.1341C8.0369 16.1341 7.80239 16.1268 7.01945 16.091M6.95788 2.65782C6.34138 2.66994 5.7314 2.78663 5.15396 3.00291C4.66033 3.19377 4.21203 3.48567 3.8378 3.8599C3.46358 4.23413 3.17167 4.68242 2.98082 5.17605C2.76456 5.7535 2.64787 6.36347 2.63572 6.97997C2.59906 7.77213 2.59082 8.02546 2.59082 10.0433C2.59082 12.0611 2.59925 12.3143 2.63572 13.1066C2.64787 13.7231 2.76456 14.3331 2.98082 14.9106C3.17168 15.4042 3.46359 15.8525 3.83782 16.2267C4.21204 16.6009 4.66034 16.8928 5.15396 17.0837C5.73143 17.2999 6.34139 17.4166 6.95788 17.4288C7.75043 17.4649 8.00337 17.4737 10.0212 17.4737C12.0391 17.4737 12.2922 17.4653 13.0845 17.4288C13.701 17.4166 14.311 17.2999 14.8885 17.0837C15.3821 16.8928 15.8304 16.6009 16.2046 16.2267C16.5788 15.8525 16.8707 15.4042 17.0616 14.9106C17.2781 14.3332 17.3948 13.7232 17.4067 13.1066C17.4428 12.3139 17.451 12.0611 17.451 10.0433C17.451 8.02546 17.4426 7.77233 17.4067 6.97997C17.3946 6.36347 17.2779 5.7535 17.0616 5.17605C16.8707 4.68252 16.5789 4.23429 16.2048 3.86007C15.8307 3.48586 15.3825 3.1939 14.8891 3.00291C14.3117 2.78649 13.7017 2.66979 13.0851 2.65782C12.2928 2.62154 12.0396 2.61292 10.0222 2.61292C8.00474 2.61292 7.75101 2.62135 6.95827 2.65782" fill="white"/>
</g>
<defs>
<radialGradient id="paint0_radial_328_13" cx="0" cy="0" r="1" gradientUnits="userSpaceOnUse" gradientTransform="translate(1.29431 19.562) scale(25.3925)">
<stop offset="0.09" stop-color="#FA8F21"/>
<stop offset="0.78" stop-color="#D82D7E"/>
</radialGradient>
<radialGradient id="paint1_radial_328_13" cx="0" cy="0" r="1" gradientUnits="userSpaceOnUse" gradientTransform="translate(13.8533 18.9196) scale(22.3457)">
<stop offset="0.64" stop-color="#8C3AAA" stop-opacity="0"/>
<stop offset="1" stop-color="#8C3AAA"/>
</radialGradient>
<clipPath id="clip0_328_13">
<rect width="20" height="20" fill="white"/>
</clipPath>
</defs>
</svg>
