<svg width="20" height="21" viewBox="0 0 20 21" fill="none" xmlns="http://www.w3.org/2000/svg">
<g clip-path="url(#clip0_108_43)">
<path d="M9.26497 0.504998C7.66298 0.527587 6.11948 1.11049 4.90247 2.1525C3.68564 3.19512 2.87082 4.62973 2.59858 6.20886C2.32634 7.78798 2.61375 9.41261 3.41122 10.8025L4.49497 10.18C3.84046 9.04333 3.60415 7.71353 3.82696 6.42095C4.04977 5.12837 4.71767 3.95444 5.71497 3.1025C6.7108 2.2491 7.97378 1.77094 9.2851 1.75085C10.5964 1.73076 11.8735 2.17001 12.895 2.9925C13.9182 3.81314 14.622 4.96589 14.8846 6.25099C15.1471 7.53608 14.9518 8.87254 14.3325 10.0287L15.435 10.6162C16.1886 9.20258 16.4254 7.57021 16.1043 6.00069C15.7832 4.43116 14.9245 3.02289 13.6762 2.01875C12.4277 1.01448 10.867 0.47893 9.26497 0.504998ZM9.39497 3.005C8.38247 3.005 7.37372 3.3475 6.55497 4.04C5.76254 4.71283 5.23517 5.64552 5.06709 6.67139C4.89901 7.69726 5.10118 8.74946 5.63747 9.64L6.70622 8.99375C6.32061 8.35819 6.1747 7.60579 6.29479 6.87216C6.41489 6.13853 6.79308 5.47193 7.36122 4.9925C7.92766 4.51088 8.64752 4.24748 9.39103 4.24977C10.1345 4.25206 10.8528 4.5199 11.4162 5.005C11.9814 5.48817 12.3554 6.15729 12.4709 6.8918C12.5864 7.62632 12.4358 8.37794 12.0462 9.01125L13.1125 9.6625C13.6542 8.77532 13.8628 7.72438 13.7009 6.69754C13.539 5.67071 13.0172 4.73493 12.2287 4.0575C11.4396 3.38044 10.4347 3.00723 9.39497 3.005ZM9.38747 6.7575C9.74372 6.7575 10.0125 7.025 10.0125 7.3825V12.375H10.015V12.995H15.005L15.0075 14.9825C15.01 17.29 13.06 19.2475 10.635 19.2475C8.20997 19.2475 6.25997 17.2925 6.25997 14.9512L6.27497 13.635C6.27258 13.552 6.28708 13.4695 6.31757 13.3923C6.34807 13.3151 6.39394 13.2449 6.45239 13.186C6.51084 13.1271 6.58066 13.0806 6.6576 13.0495C6.73454 13.0184 6.817 13.0033 6.89997 13.005H7.51247V15.5025H8.76247V7.3825C8.76247 7.025 9.02997 6.7575 9.38747 6.7575Z" fill="white"/>
</g>
<defs>
<clipPath id="clip0_108_43">
<rect width="20" height="20" fill="white" transform="translate(0 0.5)"/>
</clipPath>
</defs>
</svg>
