<svg width="60" height="60" viewBox="0 0 60 60" fill="none" xmlns="http://www.w3.org/2000/svg">
<circle cx="30" cy="30" r="30" fill="#FFF5D9"/>
<g clip-path="url(#clip0_299_2044)">
<path d="M32.3907 33.4046C37.4247 33.4046 41.5201 29.2765 41.5201 24.2024C41.5201 19.1282 37.4247 15 32.3907 15C27.3568 15 23.2614 19.1282 23.2614 24.2023C23.2614 29.2764 27.3568 33.4046 32.3907 33.4046ZM29.4572 27.0739C29.7227 26.668 30.2672 26.554 30.6731 26.8197C31.2647 27.2066 31.4878 27.2423 32.2683 27.2368C33.0301 27.2318 33.4722 26.6639 33.5605 26.1384C33.6035 25.8828 33.6199 25.2586 32.8464 24.9852C31.939 24.6644 31.0104 24.2977 30.3644 23.791C29.7183 23.2843 29.4225 22.4096 29.5924 21.5083C29.7766 20.5312 30.4581 19.7535 31.3712 19.4785C31.3794 19.476 31.3875 19.474 31.3958 19.4716V19.1386C31.3958 18.6535 31.789 18.2602 32.2741 18.2602C32.7593 18.2602 33.1525 18.6535 33.1525 19.1386V19.4162C33.7491 19.5586 34.1658 19.8316 34.335 19.958C34.7235 20.2485 34.803 20.7989 34.5126 21.1875C34.2221 21.5761 33.6717 21.6556 33.2831 21.3651C33.1031 21.2305 32.6057 20.9412 31.8778 21.1605C31.4526 21.2886 31.3424 21.7082 31.3187 21.8336C31.2723 22.0802 31.3244 22.3114 31.4485 22.4087C31.8963 22.7599 32.7024 23.0709 33.4319 23.3288C34.7769 23.8042 35.5248 25.0503 35.293 26.4296C35.1792 27.1064 34.8387 27.7343 34.3343 28.1978C33.9906 28.5135 33.5907 28.7386 33.1525 28.8672V29.266C33.1525 29.7511 32.7593 30.1444 32.2741 30.1444C31.789 30.1444 31.3958 29.7511 31.3958 29.266V28.9548C30.8278 28.8859 30.351 28.7083 29.7113 28.2898C29.3054 28.0243 29.1916 27.4798 29.4572 27.0739Z" fill="#FFBB38"/>
<path d="M18.3293 36.3561H16.3265C15.8414 36.3561 15.4481 36.7494 15.4481 37.2345V44.1204C15.4481 44.6055 15.8414 44.9988 16.3265 44.9988H18.3294V36.3561H18.3293Z" fill="#FFBB38"/>
<path d="M44.2943 36.2948C42.648 34.6484 39.9691 34.6484 38.3228 36.2948L35.6915 38.926L34.6131 40.0045C34.1772 40.4404 33.586 40.6853 32.9696 40.6853H27.7254C27.2518 40.6853 26.8442 40.3213 26.8219 39.8482C26.7981 39.343 27.2006 38.926 27.7005 38.926H33.0309C34.1027 38.926 35.0322 38.163 35.2165 37.1072C35.2588 36.8648 35.2809 36.6155 35.2809 36.3611C35.2809 35.8752 34.8872 35.4808 34.4013 35.4808H31.4805C30.526 35.4808 29.6094 35.0478 28.6389 34.5893C27.621 34.1085 26.5684 33.6113 25.3377 33.5294C24.2613 33.4577 23.1824 33.5756 22.1308 33.8792C21.0049 34.2043 20.1956 35.2046 20.0974 36.3595C20.0937 36.3592 20.0899 36.3592 20.0861 36.3589V44.9958L35.2193 45C36.2597 45 37.238 44.5948 37.9739 43.859L44.2941 37.5387C44.6378 37.1953 44.6378 36.6383 44.2943 36.2948Z" fill="#FFBB38"/>
</g>
<defs>
<clipPath id="clip0_299_2044">
<rect width="30" height="30" fill="white" transform="translate(15 15)"/>
</clipPath>
</defs>
</svg>
