<svg width="61" height="61" viewBox="0 0 61 61" fill="none" xmlns="http://www.w3.org/2000/svg">
<circle cx="30.5" cy="30.5" r="30" fill="#FFE0EB"/>
<path d="M30.7404 46H28.1543C26.871 46 25.8269 45.0538 25.8269 43.8906V29.3594C25.8269 28.1962 26.871 27.25 28.1543 27.25H30.7404C32.0238 27.25 33.0678 28.1962 33.0678 29.3594V43.8906C33.0678 45.0538 32.0237 46 30.7404 46Z" fill="#FF82AC"/>
<path d="M20.9135 46H18.3274C17.0441 46 16 45.0538 16 43.8906V34.0469C16 32.8837 17.0441 31.9375 18.3274 31.9375H20.9135C22.1969 31.9375 23.2409 32.8837 23.2409 34.0469V43.8906C23.2409 45.0538 22.1968 46 20.9135 46Z" fill="#FF82AC"/>
<path d="M40.5678 46H37.9817C36.6983 46 35.6543 45.0538 35.6543 43.8906V24.4375H34.2333C33.5689 24.4375 32.9837 24.0977 32.7061 23.5506C32.4285 23.0036 32.5246 22.3798 32.957 21.9226C32.9619 21.9174 32.9669 21.9122 32.972 21.9071L38.5044 16.3118C38.7006 16.1134 38.9807 16 39.2748 16C39.5688 16 39.8489 16.1134 40.0451 16.3118L45.5775 21.9071C45.5826 21.9122 45.5876 21.9174 45.5925 21.9226C46.0249 22.3797 46.121 23.0036 45.8434 23.5506C45.5658 24.0977 44.9806 24.4375 44.3162 24.4375H42.8952V43.8906C42.8952 45.0538 41.8511 46 40.5678 46Z" fill="#FF82AC"/>
</svg>
