<svg width="25" height="26" viewBox="0 0 25 26" fill="none" xmlns="http://www.w3.org/2000/svg">
<path d="M7.55432 0.717396L9.72823 2.78261C10.5435 3.54348 10.9782 4.57609 10.9782 5.71739C10.9782 6.80435 11.413 7.83696 12.1739 8.59783L12.4456 8.86957L14.9456 0.771739" fill="#363740"/>
<path d="M0.163086 7.94565L3.15222 7.83696C4.23917 7.78261 5.32613 8.21739 6.087 8.97826C6.84787 9.73913 7.88048 10.1196 8.96743 10.1196H9.34787L5.32613 2.67391" fill="#363740"/>
<path d="M0.163045 18.2717L2.17391 16.0978C2.93478 15.2826 3.96739 14.7935 5.05435 14.7935C6.14131 14.7935 7.11957 14.3043 7.88044 13.5435L8.15217 13.2717L0 10.9348" fill="#363740"/>
<path d="M7.55438 25.4457L7.39135 22.4565C7.337 21.3696 7.71743 20.2826 8.4783 19.4674C9.18482 18.7065 9.61961 17.6196 9.56526 16.587V16.2065L2.17395 20.3913" fill="#363740"/>
<path d="M17.8804 25.2283L15.6522 23.2717C14.8369 22.5652 14.3478 21.5326 14.2935 20.3913C14.2391 19.3044 13.75 18.3261 12.9891 17.5652L12.7174 17.2935L10.5435 25.5" fill="#363740"/>
<path d="M24.9457 17.6739L21.9566 17.8913C20.8696 18 19.7827 17.6196 18.9674 16.8587C18.1522 16.1522 17.1196 15.7717 16.0327 15.8261H15.6522L20 23.1087" fill="#363740"/>
<path d="M24.4565 7.40218L22.5544 9.68479C21.8478 10.5 20.8152 11.0435 19.7283 11.0978C18.6413 11.1522 17.663 11.6413 16.9565 12.4565L16.7391 12.7283L25 14.6848" fill="#363740"/>
<path d="M16.7935 0.5L17.0652 3.48913C17.1739 4.57609 16.8479 5.66305 16.087 6.53261C15.3805 7.34783 15.0544 8.38044 15.1087 9.46739L15.1631 9.84783L22.337 5.33696" fill="#363740"/>
</svg>
