<svg width="60" height="60" viewBox="0 0 60 60" fill="none" xmlns="http://www.w3.org/2000/svg">
<circle cx="30" cy="30" r="30" fill="#FFF5D9"/>
<path d="M28.6484 28.2539C28.6484 29.0625 27.9922 29.7188 27.1836 29.7188H25.7188V31.1836C25.7188 31.9922 25.0625 32.6484 24.2539 32.6484C23.4453 32.6484 22.7891 31.9922 22.7891 31.1836V29.7188H21.3242C20.5156 29.7188 19.8594 29.0625 19.8594 28.2539C19.8594 27.4453 20.5156 26.7891 21.3242 26.7891H22.7891V25.3242C22.7891 24.5156 23.4453 23.8594 24.2539 23.8594C25.0625 23.8594 25.7188 24.5156 25.7188 25.3242V26.7891H27.1836C27.9922 26.7891 28.6484 27.4453 28.6484 28.2539ZM35.9902 29.7188C35.9902 28.9102 35.334 28.2539 34.5254 28.2539H34.5078C33.6992 28.2539 33.0488 28.9102 33.0488 29.7188C33.0488 30.5273 33.7109 31.1836 34.5195 31.1836C35.3281 31.1836 35.9902 30.5273 35.9902 29.7188ZM40.3848 26.7891C40.3848 25.9805 39.7285 25.3242 38.9199 25.3242H38.9023C38.0938 25.3242 37.4434 25.9805 37.4434 26.7891C37.4434 27.5977 38.1055 28.2539 38.9141 28.2539C39.7227 28.2539 40.3848 27.5977 40.3848 26.7891ZM46.2266 35.5781C46.2266 33.2637 45.3828 26.168 45.2129 24.7676L45.1953 24.5742C44.8086 20.8242 41.6797 18 37.9121 18H22.3203C18.5527 18 15.418 20.8242 15.0254 24.6328L15.0137 24.7676C14.8438 26.168 14 33.2637 14 35.5723C14 38.8008 16.6309 41.4316 19.8594 41.4316C21.9336 41.4316 23.0234 40.3359 23.8262 39.5391L25.9004 37.4648C26.1758 37.1895 26.5508 37.0371 26.9375 37.0371H33.3008C33.6875 37.0371 34.0625 37.1953 34.3379 37.4648L36.4121 39.5391C37.2031 40.3418 38.293 41.4375 40.3672 41.4375C43.5957 41.4375 46.2266 38.8066 46.2266 35.5781ZM23.8262 35.4023L21.752 37.4766C21.0371 38.1914 20.6855 38.5078 19.8594 38.5078C18.2422 38.5078 16.9297 37.1953 16.9297 35.5781C16.9297 33.3926 17.8203 25.9629 17.9258 25.1133L17.9492 24.873C18.1777 22.623 20.0586 20.9297 22.3203 20.9297H37.9062C40.168 20.9297 42.0488 22.623 42.2773 24.8613L42.3066 25.1191C42.6758 28.166 43.2969 33.791 43.2969 35.5723C43.2969 37.1895 41.9844 38.502 40.3672 38.502C39.541 38.502 39.1895 38.1855 38.4746 37.4648L36.4004 35.4023C35.5684 34.5703 34.4668 34.1133 33.2949 34.1133H26.9316C25.7598 34.1133 24.6582 34.5703 23.8262 35.4023Z" fill="#FFBB38"/>
</svg>
