<svg width="60" height="60" viewBox="0 0 60 60" fill="none" xmlns="http://www.w3.org/2000/svg">
<circle cx="30" cy="30" r="30" fill="#FFF5D9"/>
<path d="M42.5 19.5001H36.25V18C36.25 16.3455 35.1288 15 33.75 15H26.25C24.8712 15 23.75 16.3454 23.75 18V19.5H17.5C16.1212 19.5001 15 20.8455 15 22.5V27C15 28.6546 16.1212 30 17.5 30H27.5V29.25C27.5 28.8354 27.7796 28.5 28.1251 28.5H31.8751C32.2205 28.5 32.5001 28.8354 32.5001 29.25V30H42.5001C43.8788 30 45 28.6546 45 27V22.5C45 20.8455 43.8788 19.5001 42.5 19.5001ZM33.75 19.5001H26.25V18H33.75V19.5001Z" fill="#FFBB38"/>
<path d="M44.6533 30.8093C44.4403 30.6826 44.1858 30.7119 43.9978 30.8833C43.5534 31.2869 43.0358 31.5 42.4999 31.5H32.5V33.75C32.5 34.1645 32.2205 34.5 31.875 34.5H28.125C27.7795 34.5 27.5 34.1645 27.5 33.75V31.5H17.5C16.9641 31.5 16.4466 31.2869 16.0022 30.8833C15.8136 30.7105 15.5597 30.6811 15.3466 30.8093C15.1343 30.9361 15 31.196 15 31.481V42C15 43.6545 16.1212 45 17.5 45H42.5C43.8788 45 45.0001 43.6546 45.0001 42V31.481C45 31.196 44.8657 30.9361 44.6533 30.8093Z" fill="#FFBB38"/>
</svg>
