<svg width="61" height="60" viewBox="0 0 61 60" fill="none" xmlns="http://www.w3.org/2000/svg">
<g clip-path="url(#clip0_298_1979)">
<circle cx="30.5" cy="30" r="30" fill="#FFE0EB"/>
<path d="M42.4932 23.2655V22.8551C42.4932 20.9685 40.9584 19.4337 39.0718 19.4337H19.4214C17.5348 19.4337 16 20.9685 16 22.8551V23.2655H42.4932Z" fill="#FF82AC"/>
<path d="M31.6521 34.2712C31.6521 32.4965 32.2229 30.8096 33.2767 29.4194H16V34.192C16 36.0786 17.5348 37.6134 19.4214 37.6134H32.3743C31.9015 36.5777 31.6521 35.4437 31.6521 34.2712ZM29.2466 33.2342H26.2937V31.4764H29.2466V33.2342ZM19.9409 31.4764H24.5359V33.2342H19.9409V31.4764Z" fill="#FF82AC"/>
<path d="M35.1016 27.6616C36.4421 26.7237 38.0346 26.2184 39.7049 26.2184C40.6717 26.2184 41.6123 26.3881 42.4932 26.7126V25.0233H16V27.6616H35.1016Z" fill="#FF82AC"/>
<path d="M46.0001 34.2712C46.0001 30.7946 43.1816 27.9762 39.705 27.9762C36.2283 27.9762 33.4099 30.7946 33.4099 34.2712C33.4099 37.7479 36.2283 40.5662 39.705 40.5662C43.1816 40.5662 46.0001 37.7479 46.0001 34.2712ZM40.5535 37.6342V38.3496H39.6746V38.3496V38.3496H38.7957V37.6395C38.2643 37.4595 37.8296 37.143 37.405 36.8325L38.4427 35.4136C39.0131 35.8308 39.305 36.0313 39.705 36.0313C39.9312 36.0313 40.1143 35.9237 40.1829 35.7504C40.266 35.5407 40.1486 35.3474 39.8686 35.2334C39.8686 35.2334 38.6123 34.8144 38.0315 34.2222C37.5442 33.7255 37.3891 33.0253 37.5443 32.3592C37.7005 31.6886 38.1533 31.1643 38.7957 30.9024V30.1927H40.5535V30.873C41 30.997 41.3778 31.1802 41.5951 31.2982L40.7565 32.843C40.2004 32.5412 39.6889 32.4506 39.4898 32.5187C39.2966 32.5847 39.2672 32.7106 39.2562 32.7581C39.2405 32.8253 39.2321 32.9284 39.3396 33.0482C39.443 33.1634 40.5314 33.6054 40.5314 33.6054C41.7057 34.0835 42.2584 35.284 41.8171 36.3979C41.5878 36.9769 41.1263 37.4154 40.5535 37.6342Z" fill="#FF82AC"/>
</g>
<defs>
<clipPath id="clip0_298_1979">
<rect width="60" height="60" fill="white" transform="translate(0.5)"/>
</clipPath>
</defs>
</svg>
