<svg width="61" height="60" viewBox="0 0 61 60" fill="none" xmlns="http://www.w3.org/2000/svg">
<circle cx="30.5" cy="30" r="30" fill="#DCFAF8"/>
<g clip-path="url(#clip0_299_2052)">
<path d="M42.483 35.0339C41.6767 37.2192 40.4572 39.1194 38.858 40.6811C37.0377 42.4586 34.6541 43.871 31.7734 44.8785C31.6789 44.9115 31.5802 44.9385 31.4811 44.9584C31.3502 44.9843 31.217 44.9982 31.0849 45.0001H31.0591C30.9183 45.0001 30.7768 44.9859 30.6365 44.9584C30.5374 44.9385 30.4402 44.9115 30.3461 44.8792C27.4619 43.8733 25.0754 42.4615 23.2533 40.684C21.6534 39.1224 20.4341 37.2233 19.6289 35.038C18.1648 31.0646 18.2481 26.6874 18.3151 23.17L18.3163 23.116C18.3298 22.8255 18.3385 22.5204 18.3433 22.1835C18.3678 20.5294 19.6829 19.1609 21.3373 19.0687C24.7865 18.8762 27.4548 17.7512 29.7347 15.529L29.7547 15.5107C30.1332 15.1635 30.6102 14.9932 31.0849 15.0003C31.5427 15.0062 31.9986 15.1763 32.3637 15.5107L32.3831 15.529C34.6635 17.7512 37.3318 18.8762 40.781 19.0687C42.4354 19.1609 43.7506 20.5294 43.7751 22.1835C43.7799 22.5227 43.7886 22.8274 43.8021 23.116L43.8027 23.1389C43.8696 26.663 43.9524 31.0488 42.483 35.0339Z" fill="#16DBCC"/>
<path d="M42.483 35.0338C41.6767 37.2192 40.4572 39.1194 38.858 40.681C37.0377 42.4585 34.6541 43.871 31.7734 44.8785C31.6789 44.9115 31.5803 44.9385 31.4812 44.9584C31.3502 44.9842 31.217 44.9982 31.085 45V15.0002C31.5427 15.0062 31.9987 15.1763 32.3637 15.5107L32.3832 15.529C34.6635 17.7512 37.3318 18.8761 40.7811 19.0686C42.4354 19.1609 43.7506 20.5293 43.7751 22.1835C43.7799 22.5227 43.7886 22.8273 43.8021 23.1159L43.8028 23.1388C43.8696 26.6629 43.9525 31.0488 42.483 35.0338Z" fill="#16DBCC"/>
<path d="M38.5353 30C38.5353 34.1137 35.1952 37.4623 31.085 37.4769H31.0587C26.9363 37.4769 23.5818 34.1227 23.5818 30C23.5818 25.8776 26.9363 22.5234 31.0587 22.5234H31.085C35.1952 22.538 38.5353 25.8866 38.5353 30Z" fill="white"/>
<path d="M35.6525 28.7964L31.1146 32.8222L30.134 33.692C29.9024 33.8975 29.5986 34.0001 29.295 34.0001C28.9912 34.0001 28.6877 33.8975 28.4557 33.692L26.3475 31.8211C25.8842 31.4101 25.8842 30.7444 26.3475 30.3332C26.8101 29.9222 27.5615 29.9222 28.0248 30.3332L29.295 31.4599L33.9752 27.3085C34.4385 26.8973 35.1899 26.8973 35.6525 27.3085C36.1158 27.7194 36.1158 28.3859 35.6525 28.7964Z" fill="#16DBCC"/>
</g>
<defs>
<clipPath id="clip0_299_2052">
<rect width="30" height="30" fill="white" transform="translate(16 15)"/>
</clipPath>
</defs>
</svg>
