<svg width="61" height="60" viewBox="0 0 61 60" fill="none" xmlns="http://www.w3.org/2000/svg">
<circle cx="30.5" cy="30" r="30" fill="#E7EDFF"/>
<g clip-path="url(#clip0_299_2081)">
<path d="M30.7862 29.4511C32.7715 29.4511 34.4907 28.739 35.8953 27.3342C37.3 25.9295 38.012 24.2109 38.012 22.2253C38.012 20.2405 37.3 18.5216 35.8951 17.1165C34.4902 15.712 32.7713 15 30.7862 15C28.8007 15 27.082 15.712 25.6774 17.1167C24.2727 18.5213 23.5604 20.2402 23.5604 22.2253C23.5604 24.2109 24.2727 25.9298 25.6776 27.3344C27.0825 28.7388 28.8014 29.4511 30.7862 29.4511Z" fill="#396AFF"/>
<path d="M43.4294 38.0685C43.3889 37.4839 43.307 36.8462 43.1864 36.1729C43.0646 35.4945 42.9078 34.8531 42.7201 34.267C42.5263 33.6611 42.2626 33.0628 41.9367 32.4895C41.5984 31.8944 41.201 31.3762 40.7552 30.9498C40.2889 30.5037 39.7181 30.1451 39.058 29.8835C38.4002 29.6232 37.6712 29.4914 36.8914 29.4914C36.5852 29.4914 36.289 29.617 35.717 29.9894C35.365 30.219 34.9532 30.4845 34.4937 30.7781C34.1007 31.0285 33.5683 31.2631 32.9107 31.4755C32.2691 31.6831 31.6178 31.7884 30.9748 31.7884C30.3319 31.7884 29.6807 31.6831 29.0385 31.4755C28.3816 31.2634 27.8492 31.0288 27.4567 30.7784C27.0014 30.4875 26.5894 30.222 26.2322 29.9892C25.6609 29.6168 25.3645 29.4911 25.0582 29.4911C24.2782 29.4911 23.5494 29.6232 22.8919 29.8837C22.2322 30.1448 21.6612 30.5035 21.1945 30.95C20.7488 31.3767 20.3513 31.8946 20.0134 32.4895C19.6877 33.0628 19.4241 33.6609 19.23 34.2672C19.0425 34.8534 18.8857 35.4945 18.764 36.1729C18.6434 36.8453 18.5614 37.4832 18.5209 38.0691C18.4811 38.6432 18.4609 39.239 18.4609 39.8407C18.4609 41.4067 18.9588 42.6745 19.9404 43.6094C20.91 44.5321 22.1929 45.0001 23.7529 45.0001H38.1981C39.7582 45.0001 41.0406 44.5323 42.0104 43.6094C42.9923 42.6751 43.4901 41.4071 43.4901 39.8405C43.4899 39.236 43.4695 38.6397 43.4294 38.0685Z" fill="#396AFF"/>
</g>
<defs>
<clipPath id="clip0_299_2081">
<rect width="30" height="30" fill="white" transform="translate(16 15)"/>
</clipPath>
</defs>
</svg>
